{"title":"Taken 2 2012 DVDRIP XVID AC3 5.1 HS (SilverTorrent)","uid":7937442,"size":1455415400,"categoryP":"video","categoryS":"movies","magnet":"?xt=urn:btih:c45f6fd414b914adffe676ca7008ca71e1ff240d&amp;dn=Taken+2+2012+DVDRIP+XVID+AC3+5.1+HS+%28SilverTorrent%29&amp;tr=udp%3A%2F%2Ftracker.openbittorrent.com%3A80&amp;tr=udp%3A%2F%2Fopen.demonii.com%3A1337&amp;tr=udp%3A%2F%2Ftracker.coppersurfer.tk%3A6969&amp;tr=udp%3A%2F%2Fexodus.desync.com%3A6969","seeders":2,"leechers":0,"uploader":"srkfan","files":3,"time":1355898526,"description":" &lt;a href=&quot;http://www.silvertorrent.org&quot; rel=&quot;nofollow&quot; target=&quot;_NEW&quot;&gt;http://www.silvertorrent.org&lt;/a&gt;\n &lt;a href=&quot;\nhttp://silvertorrent.org/index.php?page=torrent-details&amp;id=c45f6fd414b914adffe676ca7008ca71e1ff240d&quot; rel=&quot;nofollow&quot; target=&quot;_NEW&quot;&gt;\nhttp://silvertorrent.org/index.php?page=torrent-details&amp;id=c45f6fd414b914adffe676ca7008ca71e1ff240d&lt;/a&gt;\n &lt;a href=&quot;\nhttp://www.shotpix.com/images/08096634903738710469.png&quot; rel=&quot;nofollow&quot; target=&quot;_NEW&quot;&gt;\nhttp://www.shotpix.com/images/08096634903738710469.png&lt;/a&gt;\n &lt;a href=&quot;\nhttp://leetleech.org/images/54937416200370680836.jpg&quot; rel=&quot;nofollow&quot; target=&quot;_NEW&quot;&gt;\nhttp://leetleech.org/images/54937416200370680836.jpg&lt;/a&gt;\n\nTaken 2 2012 DVDRIP XVID AC3 HS\n\n &lt;a href=&quot;\nhttp://www.imdb.com/title/tt1397280/&quot; rel=&quot;nofollow&quot; target=&quot;_NEW&quot;&gt;\nhttp://www.imdb.com/title/tt1397280/&lt;/a&gt;\n\n\nSource -- retail ( HS )\n\n\n\nFile size                                : 1.36 GiB\nDuration                                 : 1h 32mn\nOverall bit rate                         : 2 095 Kbps\n\nVideo\nID                                       : 0\n\nCodec ID                                 : XVID\nCodec ID/Hint                            : XviD\nDuration                                 : 1h 32mn\nBit rate                                 : 1 704 Kbps\nWidth                                    : 720 pixels\nHeight                                   : 304 pixels\nDisplay aspect ratio                     : 2.35:1\nFrame rate                               : 23.976 fps\nColor space                              : YUV\nChroma subsampling                       : 4:2:0\nBit depth                                : 8 bits\nScan type                                : Progressive\nCompression mode                         : Lossy\nBits/(Pixel*Frame)                       : 0.325\nStream size                              : 1.10 GiB (81%)\nWriting library                          : XviD 64\n\nAudio\nID                                       : 1\nFormat                                   : AC-3\nFormat/Info                              : Audio Coding 3\nMode extension                           : CM (complete main)\nFormat settings, Endianness              : Big\nCodec ID                                 : 2000\nDuration                                 : 1h 32mn\nBit rate mode                            : Constant\nBit rate                                 : 384 Kbps\nChannel(s)                               : 6 channels\nChannel positions                        : Front: L C R, Side: L R, LFE\nSampling rate                            : 44.1 KHz\nBit depth                                : 16 bits\nCompression mode                         : Lossy\nStream size                              : 253 MiB (18%)\n &lt;a href=&quot;\nhttp://silvertorrent.org/index.php?page=torrent-details&amp;id=c45f6fd414b914adffe676ca7008ca71e1ff240d&quot; rel=&quot;nofollow&quot; target=&quot;_NEW&quot;&gt;\nhttp://silvertorrent.org/index.php?page=torrent-details&amp;id=c45f6fd414b914adffe676ca7008ca71e1ff240d&lt;/a&gt;\n &lt;a href=&quot;\nhttp://imgon.net/di-G2EB.png&quot; rel=&quot;nofollow&quot; target=&quot;_NEW&quot;&gt;\nhttp://imgon.net/di-G2EB.png&lt;/a&gt; &lt;a href=&quot;\nhttp://imgon.net/di-NXJL.png&quot; rel=&quot;nofollow&quot; target=&quot;_NEW&quot;&gt;\nhttp://imgon.net/di-NXJL.png&lt;/a&gt; &lt;a href=&quot;\nhttp://imgon.net/di-IY9D.png&quot; rel=&quot;nofollow&quot; target=&quot;_NEW&quot;&gt;\nhttp://imgon.net/di-IY9D.png&lt;/a&gt; &lt;a href=&quot;\nhttp://imgon.net/di-9GJV.png&quot; rel=&quot;nofollow&quot; target=&quot;_NEW&quot;&gt;\nhttp://imgon.net/di-9GJV.png&lt;/a&gt;\n\nNOTE\n-------\n\nWhoever Mourn About the Source..Please Visit us.. We will show You all Proof You Need..Happy Holidays \n\nGREETZ\n\nAll Who Loves Us\n","torrent":{"xt":"urn:btih:c45f6fd414b914adffe676ca7008ca71e1ff240d","amp;dn":"Taken+2+2012+DVDRIP+XVID+AC3+5.1+HS+%28SilverTorrent%29","amp;tr":["udp%3A%2F%2Ftracker.openbittorrent.com%3A80","udp%3A%2F%2Fopen.demonii.com%3A1337","udp%3A%2F%2Ftracker.coppersurfer.tk%3A6969","udp%3A%2F%2Fexodus.desync.com%3A6969"],"infoHash":"c45f6fd414b914adffe676ca7008ca71e1ff240d","infoHashBuffer":{"type":"Buffer","data":[196,95,111,212,20,185,20,173,255,230,118,202,112,8,202,113,225,255,36,13]},"announce":[],"urlList":[]}}